# xmcd
#
# Track frame offsets:
#	150
#	20800
#	25472
#	47702
#	66802
#	82160
#	104337
#	127310
#	139850
#	167605
#	200990
#	219665
#	235630
#
# Disc length: 3385 seconds
#
# Revision: 1
# Processed by: cddbd v1.4PL0 Copyright (c) Steve Scherf et al.
# Submitted via: audiograbber 1.81.02
#
DISCID=c90d370d
DTITLE=Mojo Buford - Champagne and Reefer
DYEAR=1999
DGENRE=Blues
TTITLE0=CHAMPAGNE and REEFER
TTITLE1=INTRODUCTION BY BOB MARGOLIN
TTITLE2=BLOW WIND BLOW
TTITLE3=LONG DISTANCE CALL
TTITLE4=ROLLIN' AND TUMBLIN'
TTITLE5=WEE WEE BABY
TTITLE6=BIRDNEST ON THE GROUND
TTITLE7=DON'T GO NO FURTHER
TTITLE8=MY OWN FAULT DARLING
TTITLE9=YOU'RE GONNA DRIVE ME AWAY
TTITLE10=HONEY BEE
TTITLE11=NINE BELOW ZERO
TTITLE12=BIG LEG WOMAN
EXTD=Label - Fedora Records
EXTT0=
EXTT1=
EXTT2=
EXTT3=
EXTT4=
EXTT5=
EXTT6=
EXTT7=
EXTT8=
EXTT9=
EXTT10=
EXTT11=
EXTT12=
PLAYORDER=
